<svg id="圖層_1" data-name="圖層 1" xmlns="http://www.w3.org/2000/svg" viewBox="0 0 21.72 20.69"><defs><style>.cls-1{fill:#00559c;}</style></defs><title>foot-icon-2</title><path class="cls-1" d="M19.39,14.23h0a35,35,0,0,1-8.53,6.31c-1.16.49-1-.31-.94-.59s.15-.93.15-.93a2.17,2.17,0,0,0,0-1c-.12-.3-.6-.46-1-.53C3.86,16.82,0,13.17,0,8.81,0,4,4.87,0,10.86,0S21.72,4,21.72,8.81A7.84,7.84,0,0,1,19.39,14.23Zm-1.08-2.82v-.77a.21.21,0,0,0-.2-.21H16v-.8h2.08a.2.2,0,0,0,.2-.2V8.66a.2.2,0,0,0-.2-.21H16v-.8h2.08a.2.2,0,0,0,.2-.21V6.67a.21.21,0,0,0-.2-.21H15.05a.21.21,0,0,0-.2.21h0v4.73h0a.2.2,0,0,0,.2.21h3.06A.2.2,0,0,0,18.31,11.41Zm-11.49.21A.21.21,0,0,0,7,11.41v-.77a.22.22,0,0,0-.21-.21H4.75V6.67a.22.22,0,0,0-.21-.21H3.77a.22.22,0,0,0-.21.21v4.74h0a.21.21,0,0,0,.21.21H6.82ZM8.66,6.46H7.89a.21.21,0,0,0-.21.21v4.74a.21.21,0,0,0,.21.21h.77a.2.2,0,0,0,.2-.21V6.67A.21.21,0,0,0,8.66,6.46Zm5.24,0h-.77a.21.21,0,0,0-.21.21V9.49L10.75,6.56v0h0l0,0H9.81a.22.22,0,0,0-.21.21v4.74a.21.21,0,0,0,.21.21h.77a.21.21,0,0,0,.21-.21V8.6L13,11.53l0,.05h.89a.21.21,0,0,0,.21-.21V6.67A.22.22,0,0,0,13.9,6.46Z"/></svg>