<svg id="圖層_1" data-name="圖層 1" xmlns="http://www.w3.org/2000/svg" xmlns:xlink="http://www.w3.org/1999/xlink" viewBox="0 0 101.73 81.17"><defs><style>.cls-1{fill:none;}.cls-2{clip-path:url(#clip-path);}.cls-3{clip-path:url(#clip-path-2);}.cls-4{clip-path:url(#clip-path-3);}.cls-5{fill:#e60012;}.cls-5,.cls-6,.cls-7{fill-rule:evenodd;}.cls-6{fill:#231815;}.cls-7{fill:#00559c;}.cls-8{clip-path:url(#clip-path-489);}.cls-9{fill:url(#未命名漸層_2);}.cls-10{clip-path:url(#clip-path-490);}.cls-11{clip-path:url(#clip-path-491);}</style><clipPath id="clip-path"><rect class="cls-1" x="-94.63" y="228.79" width="1280" height="654.2"/></clipPath><clipPath id="clip-path-2"><rect class="cls-1" x="-135.12" y="408.03" width="1402.41" height="501" transform="translate(42.72 -34.44) rotate(3.62)"/></clipPath><clipPath id="clip-path-3"><rect class="cls-1" x="315.59" y="-42.67" width="501" height="1402.41" transform="translate(-126.88 1181.89) rotate(-86.38)"/></clipPath><clipPath id="clip-path-489"><rect class="cls-1" x="326.18" y="-876.55" width="1280" height="654.2"/></clipPath><radialGradient id="未命名漸層_2" cx="697.82" cy="-657.52" r="438.95" gradientTransform="translate(-505.6 445.4) scale(1.92 1.32)" gradientUnits="userSpaceOnUse"><stop offset="0.3" stop-color="#fff" stop-opacity="0.6"/><stop offset="1" stop-color="#fff" stop-opacity="0"/></radialGradient><clipPath id="clip-path-490"><rect class="cls-1" x="285.7" y="-697.31" width="1402.41" height="501" transform="translate(-26.25 -63.23) rotate(3.62)"/></clipPath><clipPath id="clip-path-491"><rect class="cls-1" x="736.4" y="-1148.02" width="501" height="1402.41" transform="translate(1370.48 566.34) rotate(-86.38)"/></clipPath></defs><title>logo</title><path class="cls-5" d="M57.94,58.41h8.38l8-13.79c9.38-16.26,9.38-11.32,0-27.58l-4.16-7.2C69.07,8,65.85,3.25,57.94,3.25L71.73,27.13H46.26c-2.51,4.36-2.51,3,0,7.4H71.73l-9.6,16.63h0c-1.4,2.41-2.79,4.83-4.19,7.25Zm-20-31.28H29.28L43.07,3.25C35.16,3.25,32,8,30.89,9.84q-2.07,3.6-4.16,7.2c-9.38,16.26-9.38,11.32,0,27.58l8,13.79h8.38c-1.4-2.42-2.79-4.84-4.19-7.25h0l-9.6-16.63h8.61l-2.13-3.7,2.13-3.7ZM58.78,1.69c7.71-5.55,12.14,4.72,18.46.06C72.4,9.56,65.79.3,58.78,1.69Zm-16.53.2c-7-1.54-13.79,7.58-18.46-.33C30,6.35,34.66-3.82,42.25,1.89Z"/><path class="cls-6" d="M3.35,77v4.12H2.47V79.43H.88v1.71H0V77H.88V78.7H2.47V77Zm2.28,0v2.47a1.42,1.42,0,0,0,0,.46.71.71,0,0,0,.16.28,1,1,0,0,0,.73.25,1.16,1.16,0,0,0,.51-.1.64.64,0,0,0,.31-.27,1.49,1.49,0,0,0,.09-.62V77h.87v2.43a2.53,2.53,0,0,1-.1.79,1.1,1.1,0,0,1-.31.5,2,2,0,0,1-1.39.43,2,2,0,0,1-1.39-.42,1.13,1.13,0,0,1-.32-.48,2.59,2.59,0,0,1-.08-.76V77Zm3.74,4.12L11.07,77h1l1.71,4.12h-1l-.4-1H10.8l-.41,1ZM11.58,78,11,79.45h1.18L11.58,78Zm4.11.11v3h-.84V77H16l1.64,3.07V77h.83v4.12H17.38l-1.69-3Zm5.74.57h2v2.45H21.6a3,3,0,0,1-.75-.07,1.35,1.35,0,0,1-.51-.25,2,2,0,0,1-.65-1.73A2.59,2.59,0,0,1,20,77.76a1.29,1.29,0,0,1,.62-.56,2.54,2.54,0,0,1,1-.18h1.8v.73h-1.7A1.11,1.11,0,0,0,21,78a1.38,1.38,0,0,0-.3,1,2.82,2.82,0,0,0,.08.68.94.94,0,0,0,.21.45.62.62,0,0,0,.33.2,1.88,1.88,0,0,0,.51.06h.8v-1H21.43v-.74Zm9,1.71v.74H29a3.48,3.48,0,0,1-.63,0,1.44,1.44,0,0,1-1.08-.85,2.83,2.83,0,0,1-.21-1.16,2.57,2.57,0,0,1,.32-1.35,1.39,1.39,0,0,1,.63-.55A2.45,2.45,0,0,1,29,77h1.4v.73h-1.3a1.08,1.08,0,0,0-.86.32A1.44,1.44,0,0,0,28,79a1.5,1.5,0,0,0,.36,1.2,1.23,1.23,0,0,0,.77.19ZM35,77v4.12h-.87V79.43H32.52v1.71h-.88V77h.88V78.7h1.59V77Zm1.46,4.12V77h.88v4.12Zm5.69-1.44v1.44h-.88V77h2.06a2.59,2.59,0,0,1,.8.08,1.09,1.09,0,0,1,.64.56,1.4,1.4,0,0,1,.18.7,1.45,1.45,0,0,1-.12.59,1,1,0,0,1-.32.46,1,1,0,0,1-.39.23,2.07,2.07,0,0,1-.56.06Zm0-.74h1.19a.75.75,0,0,0,.45-.1.63.63,0,0,0,.19-.53.51.51,0,0,0-.29-.54,1.22,1.22,0,0,0-.33,0H42.13V79ZM46.05,77h.87v2.31c0,.3,0,.49,0,.59a.46.46,0,0,0,.27.38,2.2,2.2,0,0,0,.81.1h.84v.74h-.94a4.28,4.28,0,0,1-.95-.07,1.18,1.18,0,0,1-.87-.87,4.13,4.13,0,0,1-.07-.87V77Zm3.56,4.12L51.31,77h1L54,81.14H53l-.4-1H51l-.41,1ZM51.82,78l-.59,1.44h1.18L51.82,78Zm3.25,3.13V80.4H57a1.36,1.36,0,0,0,.6-.08.44.44,0,0,0,.22-.39.47.47,0,0,0-.26-.44,1,1,0,0,0-.45-.08H56.3a1.66,1.66,0,0,1-1-.25,1.12,1.12,0,0,1-.3-.41,1.27,1.27,0,0,1-.11-.52,1.36,1.36,0,0,1,.26-.79,1.07,1.07,0,0,1,.79-.41h2.59v.73H56.68a4,4,0,0,0-.55,0c-.19,0-.28.18-.28.42a.38.38,0,0,0,.23.39,1.27,1.27,0,0,0,.52.08h.66a2.41,2.41,0,0,1,.76.09.92.92,0,0,1,.6.52,1.48,1.48,0,0,1,.13.63,1.3,1.3,0,0,1-.17.68,1,1,0,0,1-.72.5,4.29,4.29,0,0,1-.71,0Zm5.85-3.39H59.61V77h3.56v.73H61.8v3.39h-.88V77.75Zm3.32,3.39V77h.88v4.12Zm5.46-.74v.74H68.26a3.29,3.29,0,0,1-.62,0,1.41,1.41,0,0,1-1.08-.85,2.83,2.83,0,0,1-.21-1.16,2.48,2.48,0,0,1,.32-1.35,1.3,1.3,0,0,1,.63-.55,2.42,2.42,0,0,1,1-.17H69.7v.73H68.4a1.06,1.06,0,0,0-.85.32,1.39,1.39,0,0,0-.23.94,1.51,1.51,0,0,0,.35,1.2,1.23,1.23,0,0,0,.77.19Zm1.22.74V80.4H72.8a1.36,1.36,0,0,0,.6-.08.43.43,0,0,0,.22-.39.47.47,0,0,0-.26-.44,1,1,0,0,0-.45-.08h-.77a1.66,1.66,0,0,1-1-.25,1.12,1.12,0,0,1-.3-.41,1.27,1.27,0,0,1-.11-.52,1.36,1.36,0,0,1,.26-.79,1.09,1.09,0,0,1,.79-.41h2.6v.73H72.52a4,4,0,0,0-.55,0c-.19,0-.28.18-.28.42a.38.38,0,0,0,.23.39,1.31,1.31,0,0,0,.52.08h.66a2.41,2.41,0,0,1,.76.09.92.92,0,0,1,.6.52,1.48,1.48,0,0,1,.13.63,1.3,1.3,0,0,1-.17.68,1,1,0,0,1-.72.5,4.29,4.29,0,0,1-.71,0Zm10.54-.74v.74H80a3.41,3.41,0,0,1-.63,0,1.43,1.43,0,0,1-1.08-.85,2.83,2.83,0,0,1-.21-1.16,2.57,2.57,0,0,1,.32-1.35,1.39,1.39,0,0,1,.63-.55,2.45,2.45,0,0,1,1-.17h1.4v.73h-1.3a1.08,1.08,0,0,0-.86.32,1.44,1.44,0,0,0-.23.94,1.54,1.54,0,0,0,.35,1.2,1.28,1.28,0,0,0,.78.19Zm3-3.41a2.68,2.68,0,0,1,1.09.21,1.47,1.47,0,0,1,.77.85,3,3,0,0,1,.17,1.09,2.62,2.62,0,0,1-.21,1.09,1.45,1.45,0,0,1-.81.77,2.5,2.5,0,0,1-.94.16,2.67,2.67,0,0,1-1.21-.25,1.57,1.57,0,0,1-.67-.68,2.59,2.59,0,0,1-.22-1.13,2.1,2.1,0,0,1,.58-1.68A2.24,2.24,0,0,1,84.5,77Zm0,.69a1,1,0,0,0-.87.4,1.82,1.82,0,0,0-.21,1,1.79,1.79,0,0,0,.26,1.07,1,1,0,0,0,.82.33.93.93,0,0,0,.8-.34,1.72,1.72,0,0,0,.26-1,1.92,1.92,0,0,0-.21-1,.94.94,0,0,0-.85-.41Zm3.9,2.66v.8h-.74v-.8ZM89.72,77h.88v2.31c0,.3,0,.49,0,.59a.45.45,0,0,0,.28.38,2.14,2.14,0,0,0,.8.1h.84v.74h-.93a4.45,4.45,0,0,1-1-.07,1.2,1.2,0,0,1-.87-.87,4.13,4.13,0,0,1-.07-.87V77Zm4.88.73H93.29V77h3.55v.73H95.47v3.39H94.6V77.75ZM97.91,77h1.75a2.94,2.94,0,0,1,1,.13,1.37,1.37,0,0,1,.89.88,3.32,3.32,0,0,1,.17,1.06,3.6,3.6,0,0,1-.16,1,1.34,1.34,0,0,1-.54.75,1.51,1.51,0,0,1-.51.2,5.88,5.88,0,0,1-.86,0H97.91V77Zm.88.73V80.4h.87a1,1,0,0,0,.8-.25,1.35,1.35,0,0,0,.22-.45,2.45,2.45,0,0,0,.08-.62,2.09,2.09,0,0,0-.1-.67,1,1,0,0,0-.26-.45,1.07,1.07,0,0,0-.74-.21Z"/><path class="cls-6" d="M.43,64.83,1,65l.63.24.13.08H6.36c.12-.11.25-.23.4-.35l.25-.2.45.34c.21.18.44.37.67.58l-.22.19-.14.14V69l0,1v.43a5.77,5.77,0,0,0,.09.6,2.2,2.2,0,0,0,.16.54c0-.08.06-.22.13-.42s.11-.34.14-.43l0-.06.23.09.23.08-.11.55a3.67,3.67,0,0,0-.06.61,2.05,2.05,0,0,0,.08.2.77.77,0,0,1,.07.17,3.6,3.6,0,0,1-.23.65,1.1,1.1,0,0,1-.36.42.9.9,0,0,1-.74,0l-.38-.29v.31H1.57v-.57H3.44V72H2.05v-.56H3.44v-.74H2v-.56H5.27A2,2,0,0,0,5.48,70l.22-.2.37.32.39.32a1.71,1.71,0,0,1,0-.32v-.41l0-1V67.13a3,3,0,0,0-.26.23l-.22.2v2l-.55.1-.55.12h0v-.26H3.35v.21l-.59.1-.54.12H2.17V66.53l.6.19.71.21.22-.5a4.69,4.69,0,0,0,.19-.51H1.76V70.2a11.42,11.42,0,0,1-.29,1.5A6,6,0,0,1,.9,73.09l-.13.2-.19.27-.3-.17L0,73.21c.12-.45.21-.86.28-1.24a11,11,0,0,0,.15-1.24v-5.9ZM4.25,66l.22.1a4.21,4.21,0,0,0,.43.17v0l-.31.33a3.87,3.87,0,0,1-.29.29l.19,0h.21A2.35,2.35,0,0,0,5,66.68a1.31,1.31,0,0,1,.29-.23l.7.51.48.34V66Zm-.9,1.44v.5H4.8v-.5Zm0,1V69H4.8v-.51Zm1.32,2.3v.73h.57a1.54,1.54,0,0,1,.17-.19l.18-.14a1.83,1.83,0,0,1,.35.25l.46.37V72H4.67v.79H5.73L6,72.62a2.12,2.12,0,0,1,.27-.25l.07,0,.36.28.41.35a6.09,6.09,0,0,1-.38-1.12,11.34,11.34,0,0,1-.2-1.17Zm5.93-5.92L11,65l.43.17.12,0H13.2l.19-.18.26-.2a4,4,0,0,1,.34.27l.33.3.1.08v.3H13v.74h.34a.41.41,0,0,0,.14-.1l.14-.14.28.22.34.31v.28H13v.76h.36a1.53,1.53,0,0,1,.16-.13l.14-.1.27.16.25.16c0-.09,0-.16-.06-.23l.27-.07.29-.1V65.47l.5.09.51.11.08,0V67.2l.21-.09.2-.07V64.81l.49.09.5.1.07,0v1.69l.21-.1.2-.1.16-.23a.76.76,0,0,1,.21-.19l.68.54.4.33-.14.16a.35.35,0,0,0-.06.19V68l0,.5v.4l0,.34v.28l-.09.7a1.45,1.45,0,0,1-.24.64l-.26.15L18.1,71h-.54v-.1a.64.64,0,0,0-.09-.28,1.58,1.58,0,0,0-.17-.29V71.4l-.54.12c-.21,0-.4.1-.58.13V67.71l-.21.07-.19.08v4.31a.64.64,0,0,0,.16.17h2l.16-.15.12-.4c0-.18.08-.32.11-.42l.23.06.23.08a.6.6,0,0,0,0,.2V72a1.19,1.19,0,0,0,.16.39,2.25,2.25,0,0,1,.21.4.83.83,0,0,1-.28.37,1.67,1.67,0,0,1-.29.21l-.1,0H15.51a1.09,1.09,0,0,1-.62-.27,1.07,1.07,0,0,1-.2-.5V69.56l-.23.19-.19.19v.64l0,.4v.31c0,.15,0,.27,0,.38s0,.28,0,.4v.14l-.11.54a1.07,1.07,0,0,1-.24.49,1.34,1.34,0,0,1-.31.17,1.39,1.39,0,0,1-.35.09H12.7v-.14a.69.69,0,0,0-.33-.42l-.31-.14a1.31,1.31,0,0,1,.06-.27l.44,0,.46,0a.82.82,0,0,0,.19-.52c0-.09,0-.27,0-.52a.57.57,0,0,0-.16.11c-.14-.34-.23-.55-.26-.64l-.34-.8.2-.12a3.18,3.18,0,0,0,.27.34,4.61,4.61,0,0,1,.31.36v-1H11.54v.23l-.45.1-.45.1,0,0V64.83Zm.94.94v.73h.63v-.73Zm0,1.31v.75h.63v-.75Zm6.21.19a.77.77,0,0,0-.26,0,1.11,1.11,0,0,0-.24,0v2.72h.27s.08-.07.13-.17a.75.75,0,0,0,.07-.23v-.31l0-1.49v-.61Zm-3.53.82v.34H13v.89a.74.74,0,0,0,.27-.15l.34-.24.54.39.52.38V68.23l-.31.07a1.66,1.66,0,0,0-.16-.21Zm-2.68.34v.85h.63v-.85Zm.64,2a.22.22,0,0,0-.24.13l.19.63q.16.54.24.84l.24-.09.21-.13a3.36,3.36,0,0,0-.31-.8l-.33-.58Zm-.52.16a.3.3,0,0,0-.24,0c0,.18,0,.34,0,.48s0,.31,0,.48v.12s0,.11,0,.24,0,.22,0,.36v.22a.47.47,0,0,0,.3-.1l.28-.19a5.65,5.65,0,0,0-.2-.84c0-.18-.15-.45-.29-.82Zm-.9.08v.12c0,.15-.06.41-.13.77s-.18.89-.28,1.3a3.19,3.19,0,0,0,.44.13l.47.13v-1l-.06-.59c0-.34-.06-.61-.08-.81h-.37ZM24.2,64.8,25,65l.81.19a1,1,0,0,0-.14.18l-.1.19a23.71,23.71,0,0,0,2.22.91l1.64.56L29,67.9l-.29.67c-.5-.29-1-.64-1.6-1s-1.15-.83-1.68-1.25l-.17-.16L25.15,66a11.34,11.34,0,0,1-2,1.55,14.3,14.3,0,0,1-2.1,1l-.17-.26L20.69,68a21.54,21.54,0,0,0,2.13-1.65l.71-.73.24-.26a6.2,6.2,0,0,0,.43-.59Zm.51,2.53v5.5H23.43V69.07l-.08,0-.82-.15-.61-.1v4.06H20.66v.57h8.81v-.32a4.61,4.61,0,0,0-.4-.37c-.12-.11-.26-.22-.42-.34l-.33.26-.22.2H26.2V70.17h3v-.32a3,3,0,0,0-.4-.38l-.41-.32a1.5,1.5,0,0,0-.33.24l-.24.2H26.2v-2l-.07,0-.85-.16-.57-.1Zm8.92-2.52.62.11.62.12.06,0v1.77h.72v-2l.61.11.61.12.06,0v1.8c.12-.21.26-.5.44-.88s.32-.69.39-.88l.09-.14.6.21.62.24c-.17.28-.37.56-.59.86a6,6,0,0,1-.46.55h.5a1.37,1.37,0,0,0,.24-.19l.14-.15.39.31a3,3,0,0,1,.36.35v.26H37.58l.25.2.17.14-.38.3a3.76,3.76,0,0,1-.42.26h1.28a1.42,1.42,0,0,0,.22-.16l.16-.14a5.44,5.44,0,0,1,.43.36l.33.29v.26H35.91v.6h2.14l.21-.19.19-.15.39.34.25.22.11.08v.26H35.91v.66H38.6l.21-.19a1.15,1.15,0,0,1,.19-.15,4.87,4.87,0,0,1,.42.35l.33.3v.27H36.53a12,12,0,0,0,1.58.52,6.69,6.69,0,0,0,1.64.22l-.47.77c-.18.29-.29.46-.32.52a12.52,12.52,0,0,1-2-.69,3,3,0,0,1-1-.66v1.3l-.67.11-.66.13h0V72.24A5,5,0,0,1,33,73a9.84,9.84,0,0,1-1.78.3l-.09-.2c0-.06-.05-.12-.09-.19.84-.38,1.38-.64,1.64-.8a5.14,5.14,0,0,0,.71-.59l.2-.21H31.07v-.6h3.48v-.67h-3v-.55h3v-.61H31.08v-.55h2.14L32.86,68l-.38-.33,0,0,.21-.21H31.15v-.59h1.49a7.43,7.43,0,0,0-.68-.78c-.2-.21-.39-.4-.57-.56l0-.07c.09-.12.17-.23.25-.32a1.69,1.69,0,0,1,.23-.2l.65.34a6.79,6.79,0,0,1,.87.69c-.11.11-.25.28-.44.49l-.34.4h1.06v-2Zm-.19,2.64a3.17,3.17,0,0,1,.5.27l.47.31a.58.58,0,0,1-.11.2l-.1.14h1.66l.14-.12.36-.39.34-.41Zm8.28-2.64.57.18.62.2h.7l.23-.19.25-.17a2.93,2.93,0,0,1,.42.29l.65.53L45,65.8l-.13.12v2.65a4.93,4.93,0,0,0,.34-.49,2.15,2.15,0,0,0,.26-.49,2.34,2.34,0,0,0,.08-.35,2.73,2.73,0,0,0,.06-.34V64.83L46,65l.52.18.14,0h.93l.21-.2a2.11,2.11,0,0,1,.23-.19l.41.32c.17.14.36.3.57.5a1.56,1.56,0,0,1-.18.17l-.13.12v1.29c0,.08.08.15.22.2a.31.31,0,0,0,.36-.09c0-.08.05-.2.1-.35s.08-.28.1-.36l.19,0,.18.07a1.63,1.63,0,0,0,0,.63,2.11,2.11,0,0,0,.22.47,1.54,1.54,0,0,1-.27.36.72.72,0,0,1-.32.2h-.8l.52.48.57.5.06.08-.25.15-.25.15c-.14.3-.29.6-.43.89s-.41.78-.6,1.09c.18.06.48.13.88.23a7,7,0,0,1,.88.23c-.08.22-.17.45-.26.68,0,0-.09.26-.26.7l-.6-.21-.57-.24L48,72.83a4.67,4.67,0,0,0-.46-.27,5.87,5.87,0,0,1-1.15.58,10.11,10.11,0,0,1-1.23.39l-.17,0-.13-.22-.13-.23-.26.13-.18.07h-.78v-.13a.86.86,0,0,0-.17-.31,1.21,1.21,0,0,0-.28-.21.26.26,0,0,1,0-.23l0-.3h.35a.38.38,0,0,0,.19-.06.24.24,0,0,0,.14-.11V70.14h-.8v1.1a5.64,5.64,0,0,1-.37,1.14,5,5,0,0,1-.61,1l-.13.15-.23-.18-.21-.18.23-1a6.83,6.83,0,0,0,.15-1V64.81Zm1.17.93v1.58h.8V65.74Zm3.76,0V67l0,.23a2.41,2.41,0,0,1-.49,1,3.67,3.67,0,0,1-.84.68h2.77l.28-.23a2.54,2.54,0,0,1,.31-.25h-.41a1.41,1.41,0,0,1-.43-.22.85.85,0,0,1-.16-.43v-2ZM42.89,67.9v1.67h.8V67.9Zm2,.52v4.26a1.7,1.7,0,0,0-.06.18,1.53,1.53,0,0,0-.06.22,7.08,7.08,0,0,0,1-.56,9.4,9.4,0,0,0,.94-.68,9.86,9.86,0,0,1-.61-1.17,6.31,6.31,0,0,1-.37-1.23H45.1v-.57l.16-.07-.21-.2-.19-.18Zm1.47,1a6.05,6.05,0,0,0,.36.69,6.8,6.8,0,0,0,.57.88,6.31,6.31,0,0,0,.48-1l.19-.58Zm6.78-4.64c.25,0,.49.08.7.13l.73.18c-.1.3-.19.55-.25.75s-.21.58-.33.91l-.07.13v1.82l.21-.25a14.62,14.62,0,0,0,.66-1.31,13,13,0,0,0,.55-1.39l.64.17.64.18a8.46,8.46,0,0,1-.69,1.26A10.78,10.78,0,0,1,55,68.52a1.34,1.34,0,0,0-.2.21h3.36a2.06,2.06,0,0,0,.25-.21l.27-.22.49.37.71.54-.11.09-.17.15v.9l0,.77v.3a9.61,9.61,0,0,1-.18,1,2.08,2.08,0,0,1-.22.64,1.16,1.16,0,0,1-.41.28l-.36.13h-.81v-.15a.89.89,0,0,0-.5-.67,2.33,2.33,0,0,0-.54-.11,1.23,1.23,0,0,1,0-.17.78.78,0,0,1,0-.21V72.1h.44l.43,0h.32L58,72a2.31,2.31,0,0,0,.16-.54c0-.15,0-.33.07-.54v-1.6H57.06v.76a4.06,4.06,0,0,1-.45,1.62A8.17,8.17,0,0,1,55.32,73l-.44.31a2.92,2.92,0,0,0-.29.24l-.07,0c-.08-.08-.14-.16-.21-.24l-.2-.27A6.35,6.35,0,0,0,55,72a5.29,5.29,0,0,0,.59-1.28c0-.07,0-.17,0-.3l.06-.29v-.75h-.76v-.66a2.82,2.82,0,0,0-.26.23l-.29.26-.3-.24-.2-.17v4.56l-.67.11-.65.13h0V69l-.22.2-.19.21-.25-.17-.21-.17c.25-.61.46-1.12.61-1.54a27.62,27.62,0,0,0,.83-2.71Zm4.75,0-.24.17a.64.64,0,0,0-.16.17H56.17v.56h1.52a11.77,11.77,0,0,0,.72,1.55,5.57,5.57,0,0,0,1.31,1.46q.14-.24.36-.69l.34-.7-.08,0a6.57,6.57,0,0,1-1-.65,5.2,5.2,0,0,1-.87-.8.59.59,0,0,1,.17-.22c.06-.06.14-.12.24-.2a3.18,3.18,0,0,0-.47-.33l-.53-.27Zm6.69,0,.8.22.82.24-.19.45-.21.54h3.65c.06-.05.13-.13.23-.21a2.92,2.92,0,0,1,.34-.23l.4.33a2.4,2.4,0,0,1,.4.37v.32H65.48a4.16,4.16,0,0,0-.23.42,3.75,3.75,0,0,0-.2.45h3.49l.41-.34a2.45,2.45,0,0,1,.35-.25l.45.34.76.59a2.71,2.71,0,0,0-.24.23l-.13.14v4.29a1.07,1.07,0,0,1-.28.55.94.94,0,0,1-.41.21l-.09,0h-1v-.23a.86.86,0,0,0-.46-.59,1.63,1.63,0,0,0-.57-.12h-.09v-.51h.17l.35,0h.8a.78.78,0,0,0,.16-.24V71.3H65.14v2l-.72.12-.7.13h0V69.82c-.27.33-.51.59-.7.79l-.44.41-.22-.2c-.12-.11-.22-.22-.32-.33a17.64,17.64,0,0,0,1.1-1.94c.12-.23.31-.65.57-1.24l.08-.24a2.16,2.16,0,0,0,0-.25H62v-.56h2.06c.07-.23.15-.51.25-.82s.18-.56.21-.63Zm.59,3.49v.92h3.53V68.3Zm0,1.5v.93h3.53V69.8Zm7.34-5,.7.23.6.22h.57l.22-.22.23-.21,0,0,.37.26.51.36a.86.86,0,0,0,.23.06v-.68a5.42,5.42,0,0,1,.6.23l.61.25.13,0h1.63l.28-.25.38-.3.4.31.72.59-.22.2-.15.14V69l-.64.11-.64.12h0v-.37h-.68c.1.28.22.58.37.91a5.42,5.42,0,0,0,.43.77l.43-.54c.16-.21.3-.4.4-.56l.14-.12.41.31.52.38,0,0c-.22.13-.49.27-.79.42l-.88.42c.45.37.87.71,1.28,1q.16.14.39.36l-.38.47c-.21.27-.42.53-.62.8l0,0c-.33-.36-.6-.69-.83-1,0,0-.11-.17-.31-.45a7.86,7.86,0,0,1-.82-1.56,15.11,15.11,0,0,1-.45-1.7h-.33v3.37l.48-.12a3.91,3.91,0,0,1,.5-.08l.09.22.1.22a12.18,12.18,0,0,1-1.53.72c-.08,0-.49.14-1.26.33L75.45,73c-.07-.19-.14-.38-.19-.55a.82.82,0,0,1,.24,0H76V65.6A7,7,0,0,0,75,67c-.07.12-.25.46-.54,1a5.77,5.77,0,0,1,.75,1.13,5.51,5.51,0,0,1,.39,1.29l0,.17V71a1.74,1.74,0,0,1-.17.45.9.9,0,0,1-.22.3l-.23.09-.16.06h-.52v-.22l-.09-.22-.13-.19a.71.71,0,0,0-.28-.06v2.16l-.62.11-.62.11h0V64.83Zm1.29,1v4.78H74a.59.59,0,0,0,.23,0,.31.31,0,0,0,.15-.19V70a8.46,8.46,0,0,0-.15-1A7.94,7.94,0,0,0,74,68c.06-.32.13-.68.21-1.07s.12-.67.21-1.08Zm3.51,0v.86H79v-.86Zm0,1.44v.93H79v-.93Zm11.19-2.52a10.12,10.12,0,0,0,1.32,2.35A8.42,8.42,0,0,0,91,68.5l.23.21a.27.27,0,0,1,.11.19c-.25.23-.51.47-.77.73l-.51.46c-.16-.2-.31-.37-.42-.52s-.25-.35-.38-.53a13.46,13.46,0,0,1-1.09-2c0-.09-.14-.4-.31-.92a4.42,4.42,0,0,1-.16-.51l-.11-.5.22-.08.65-.21ZM85.06,65l.73.42c.29.16.51.29.64.38a20.39,20.39,0,0,1-1.6,2.6l-.67.79-.54.49c-.23.21-.37.33-.41.38a3.9,3.9,0,0,0-.3-.26,2.18,2.18,0,0,1-.25-.28,22.09,22.09,0,0,0,1.78-3c0-.09.23-.57.57-1.43l0-.13Zm1.19,3.07-.06.16a24.33,24.33,0,0,1-1.09,2.41c-.21.41-.47.85-.76,1.3l-1,0H83.1v0c.06.15.15.37.26.66s.2.51.26.66l.36,0L86,73l2.14-.39a3.34,3.34,0,0,1,.4-.12l.41-.11.09.15a2.76,2.76,0,0,0,.13.38l.22.57.74-.4.73-.4v0l-.16-.26L90.42,72c-.27-.37-.58-.76-.92-1.16-.2-.24-.47-.55-.82-.93l-.3.16-.35.21c.08.17.19.4.34.68l.34.7a.65.65,0,0,1-.26.06l-2,.16L85.3,72a4.88,4.88,0,0,0,.4-.43l.34-.38.58-.67a16.84,16.84,0,0,0,1.22-1.85L87,68.35Z"/><path class="cls-6" d="M100.43,64.85l.54.43c.26.19.49.38.7.55l.06,0a1.07,1.07,0,0,0-.19.18.92.92,0,0,0-.14.14v6.26a2.85,2.85,0,0,1-.12.4,1.73,1.73,0,0,1-.21.37,1.11,1.11,0,0,1-.34.18,1.36,1.36,0,0,1-.36.09h-.86v-.16a1.14,1.14,0,0,0-.25-.47.81.81,0,0,0-.34-.27l-.29-.09-.19,0h-.23v-.12a.78.78,0,0,1,0-.22v-.2h.22L99,72h.51a.35.35,0,0,0,.16-.11,1,1,0,0,0,.11-.17V65.91H93v-.56h6.75l.34-.26.38-.24Zm-2,1.38-.25.24-.26.25H93.51v.56h5.8V67l-.38-.36a4.63,4.63,0,0,0-.47-.39Zm-4.68,1.51V71.8h0l.68-.12.68-.12V71H97.4v.52h0l.68-.12.7-.12V69l.13-.13.19-.18,0,0-.71-.55L98,67.73l-.37.31-.28.25H95.18l-.13-.07L94.48,68l-.7-.27Zm1.41,1.12v1.6H97.4v-1.6Z"/><path class="cls-7" d="M52.65,58.41h-4.6l0,0,0,0,0-.05,0-.06h0l0,0,0,0,0-.05,0,0v0l0,0,0-.05,0,0,0-.05v-.06l0-.05,0,0,0,0,0,0h0l0,0,0-.05,0,0,0,0h0l0,0,0-.05,0,0,0,0h0l0,0,0,0,0-.05,0,0v0l0,0,0-.05,0-.06,0-.05,0,0h0l0-.05,0,0,0,0,0-.05h0l0,0,0-.05,0-.06,0-.05h0l0,0,0-.05,0,0,0,0v0l0,0,0,0,0-.05,0,0v0l0,0,0,0,0,0,0-.05,0,0h0l0-.05,0,0,0,0,0-.05h0l-.06-.1,0,0,0-.05h0l0,0h0L40.09,44.62l-8-13.79,8-13.79L46.16,6.52h0l0,0h0l0,0,0,0,.06-.1h0l0-.06,0,0,0,0,0-.05h0l0,0,0,0,0,0,0,0,0,0v0l0,0,0-.06,0,0,0,0v0l0,0,0,0,0,0,0,0h0l0-.05,0,0,0-.06,0,0h0l0-.05,0,0,0,0,0,0h0l0,0,0-.05,0,0,0-.06,0,0v0l0-.05,0,0,0,0,0,0v0l0,0,0-.05,0,0,0,0h0l0-.06,0,0,0,0,0,0h0l0,0,0-.05,0,0,0-.05v0l0-.06,0-.05,0,0,0,0v0l0-.05,0,0,0-.05,0,0h0l0,0,0-.05,0-.06,0,0h4.6l0,0,0,.06,0,.05,0,0h0l0,0,0,.05,0,0,0,.05,0,0v0l0,0,0,.05,0,.06,0,0v0l0,.05,0,0,0,.05,0,0h0l0,0,0,0,0,0,0,.06h0l0,0,0,0,0,.05,0,0v0l0,0,0,0,0,0,0,.05,0,0v0l0,.06,0,0,0,.05,0,0h0l0,0,0,0,0,0,0,.05h0l0,0,0,.06,0,0,0,.05h0l0,0,0,0,0,0,0,0,0,0v0l0,0,0,.06,0,0,0,0v0l0,0,0,0,0,0,0,0h0l0,.05,0,0,0,0,0,.06h0l0,.05,0,0,0,0,0,0h0l0,0L60.61,17l3.12,5.41H55.36l-5-8.68L44.9,23.21c-5.31,9.19-5.1,6.41.25,15.68l5.2,9,5-8.68h8.37l-3.12,5.41L54.54,55.14l0,0h0l0,.05,0,0,0,.05,0,0h0l0,.05,0,0,0,0,0,.05h0l0,0,0,.05,0,0,0,0v0l0,0,0,0,0,.05,0,0v0l0,0,0,0,0,0,0,.05,0,0h0l0,.05,0,.06,0,.05,0,0h0l0,.05,0,0,0,0,0,.05h0l0,0,0,.05,0,.06,0,.05v0l0,0,0,0,0,.05,0,0,0,0h0l0,0,0,0,0,.05,0,0h0l0,0,0,0,0,.05,0,0h0l0,0,0,0,0,0,0,.05v0l0,0,0,.05,0,0,0,.05v0l0,0,0,0,0,.05,0,0,0,0h0l0,.06,0,.05,0,0Z"/><g class="cls-8"><ellipse class="cls-9" cx="834.77" cy="-421.94" rx="843.12" ry="579.02"/></g></svg>